<?xml version="1.0" encoding="UTF-8" standalone="no" ?>
<!DOCTYPE svg PUBLIC "-//W3C//DTD SVG 1.1//EN" "http://www.w3.org/Graphics/SVG/1.1/DTD/svg11.dtd">
<svg xmlns="http://www.w3.org/2000/svg" xmlns:xlink="http://www.w3.org/1999/xlink" version="1.1" width="1280" height="1024" viewBox="0 0 1280 1024" xml:space="preserve">
<desc>Created with Fabric.js 5.3.0</desc>
<defs>
</defs>
<g transform="matrix(1 0 0 1 640 512)" id="background-logo"  >
<rect style="stroke: none; stroke-width: 0; stroke-dasharray: none; stroke-linecap: butt; stroke-dashoffset: 0; stroke-linejoin: miter; stroke-miterlimit: 4; fill: rgb(82,124,159); fill-rule: nonzero; opacity: 1;"  paint-order="stroke"  x="-640" y="-512" rx="0" ry="0" width="1280" height="1024" />
</g>
<g transform="matrix(1.9211538461538462 0 0 1.9211538461538462 636.021672254362 497.201104108089)" id="tagline-c8ba2cbe-68da-4718-a4bf-dd748f33abab-logo"  >
<g style=""  paint-order="stroke"   >
		<g transform="matrix(1 0 0 1 0 0)" id="tagline-c8ba2cbe-68da-4718-a4bf-dd748f33abab-logo-path-0"  >
<path style="stroke: none; stroke-width: 0; stroke-dasharray: none; stroke-linecap: butt; stroke-dashoffset: 0; stroke-linejoin: miter; stroke-miterlimit: 4; fill: rgb(255,255,255); fill-rule: nonzero; opacity: 1;"  paint-order="stroke"  transform=" translate(-213.28, 73.15)" d="M 33.23 0 L 43.47 -39.71 L 78.17 -39.71 L 88.41 0 L 114.32 0 L 76.7 -146.3 L 44.93 -146.3 L 7.31 0 Z M 49.95 -64.79 L 60.82 -107.43 L 71.69 -64.79 Z M 247.66 -146.3 L 200.43 -146.3 C 178.9 -146.3 161.35 -128.53 161.35 -106.8 C 161.35 -97.39 164.48 -88.83 169.92 -82.14 C 159.68 -73.78 152.99 -60.82 152.99 -46.4 C 152.99 -20.9 173.68 0 198.97 0 L 223.21 0 C 236.38 0 248.29 -5.64 256.65 -14.63 C 265.01 -5.64 276.92 0 290.09 0 L 290.09 -25.08 C 276.92 -25.08 269.19 -33.02 269.19 -46.4 L 269.19 -67.51 L 284.45 -67.51 L 284.45 -92.59 L 228.86 -92.59 L 228.86 -67.51 L 244.11 -67.51 L 244.11 -46.4 C 244.11 -33.02 236.38 -25.08 223.21 -25.08 L 198.97 -25.08 C 185.8 -25.08 178.07 -33.02 178.07 -46.4 C 178.07 -59.77 185.8 -67.51 198.97 -67.51 L 219.24 -67.51 L 219.24 -92.59 L 200.43 -92.59 C 191.03 -92.59 186.43 -97.19 186.43 -106.8 C 186.43 -116.41 191.03 -121.22 200.43 -121.22 L 247.66 -121.22 Z M 328.76 0 L 376.41 0 C 400.03 0 419.25 -19.23 419.25 -42.84 C 419.25 -59.77 409.43 -74.4 395.01 -81.3 C 397.73 -87.15 399.19 -93.63 399.19 -100.32 C 399.19 -125.4 378.92 -145.88 353.84 -146.3 L 328.76 -146.3 Z M 376.41 -25.08 L 353.84 -25.08 L 353.84 -54.34 C 361.99 -54.55 369.72 -56.85 376.41 -60.61 C 387.9 -60.61 394.17 -54.34 394.17 -42.84 C 394.17 -31.35 387.9 -25.08 376.41 -25.08 Z M 353.84 -79.42 L 353.84 -121.22 C 366.59 -121.01 374.11 -113.28 374.11 -100.32 C 374.11 -87.36 366.59 -79.63 353.84 -79.42 Z" stroke-linecap="round" />
</g>
</g>
</g>
</svg>